<svg width="15" height="15" viewBox="0 0 15 15" fill="none" xmlns="http://www.w3.org/2000/svg">
<g clip-path="url(#clip0_58:927)">
<path d="M13.0824 0H1.9176C1.03572 0 0.320801 0.714922 0.320801 1.59679V14.4194C0.320801 14.6399 0.499541 14.8186 0.720009 14.8186C0.798825 14.8186 0.875882 14.7953 0.94145 14.7516L2.44371 13.7501C2.60205 13.6446 2.81287 13.6654 2.94741 13.8L4.03051 14.8831C4.18642 15.039 4.43915 15.039 4.59506 14.8831L5.62731 13.8509C5.78322 13.695 6.03595 13.695 6.19186 13.8509L7.2241 14.8831C7.38001 15.039 7.63274 15.039 7.78865 14.8831L8.8209 13.8509C8.97681 13.695 9.22954 13.695 9.38545 13.8509L10.4177 14.8831C10.5736 15.039 10.8263 15.039 10.9822 14.8831L12.0647 13.8006C12.1996 13.6658 12.4109 13.6452 12.5693 13.7513L14.0578 14.7489C14.241 14.8717 14.4889 14.8227 14.6116 14.6396C14.6557 14.5738 14.6792 14.4965 14.6792 14.4173V1.59679C14.6792 0.714922 13.9643 0 13.0824 0ZM13.0824 12.227C12.355 11.9384 11.5076 12.0994 10.9356 12.6714L10.6999 12.9071L10.5145 12.7217C9.73503 11.9423 8.47124 11.9423 7.69176 12.7217L7.50636 12.9071L7.32096 12.7217C6.54148 11.9423 5.27769 11.9423 4.49821 12.7217L4.31281 12.9071L4.07655 12.6709C3.50152 12.0959 2.64786 11.936 1.91763 12.2313V1.59679H13.0824V12.227H13.0824Z" fill="white"/>
<path d="M11.5096 3.18948H3.5144V4.78628H11.5096V3.18948Z" fill="white"/>
<path d="M6.71918 6.37689H3.52563V7.97369H6.71918V6.37689Z" fill="white"/>
<path d="M9.91271 6.37689H8.31592V7.97369H9.91271V6.37689Z" fill="white"/>
</g>
<defs>
<clipPath id="clip0_58:927">
<rect width="15" height="15" fill="white"/>
</clipPath>
</defs>
</svg>
